<svg xmlns="http://www.w3.org/2000/svg" viewBox="0 0 128 128">
  <defs>
    <linearGradient id="g" x1="0%" y1="0%" x2="100%" y2="100%">
      <stop offset="0%" stop-color="#ff6b35" />
      <stop offset="100%" stop-color="#f7931e" />
    </linearGradient>
  </defs>
  <rect width="128" height="128" rx="32" fill="url(#g)" />
  <path d="M36 52h56a8 8 0 0 1 8 8v28a16 16 0 0 1-16 16H44a16 16 0 0 1-16-16V60a8 8 0 0 1 8-8z" fill="#fff" opacity="0.9" />
  <path d="M32 48h64a4 4 0 0 0 0-8H32a4 4 0 0 0 0 8z" fill="#fff" />
  <path d="M52 36c0 4-4 8-4 12 0 3 2 5 4 5s4-2 4-5c0-4-4-8-4-12zm16 0c0 4-4 8-4 12 0 3 2 5 4 5s4-2 4-5c0-4-4-8-4-12zm16 0c0 4-4 8-4 12 0 3 2 5 4 5s4-2 4-5c0-4-4-8-4-12z" fill="#fff" opacity="0.9" />
</svg>
